<svg data-v-423bf9ae="" xmlns="http://www.w3.org/2000/svg" viewBox="0 0 393 90" class="iconLeftSlogan"><!----><!----><!----><g data-v-423bf9ae="" id="3a845bad-b2c4-4c6d-9393-b2ae95b10c86" fill="black" transform="matrix(6.276150978224502,0,0,6.276150978224502,62.95036413353969,-8.221757899187018)"><path d="M3.87 5.91L3.87 7.09L3.87 7.67L3.87 7.67Q3.87 7.88 3.90 8.41L3.90 8.41L3.90 8.41Q3.92 8.94 3.92 9.03L3.92 9.03L3.92 9.03Q3.92 9.34 3.96 9.57L3.96 9.57L3.96 9.57Q4.00 9.79 4.05 9.91L4.05 9.91L5.21 10.08L5.21 10.68L2.66 10.64L0.50 10.68L0.50 10.08L1.32 9.91L1.32 9.91Q1.36 9.79 1.39 9.48L1.39 9.48L1.39 9.48Q1.42 9.16 1.42 9.03L1.42 9.03L1.45 7.67L1.45 4.35L1.42 3.00L1.42 3.00Q1.42 2.68 1.39 2.45L1.39 2.45L1.39 2.45Q1.36 2.22 1.32 2.11L1.32 2.11L0.50 1.95L0.50 1.35L2.66 1.38L6.31 1.31L6.31 1.31Q7.83 1.31 8.64 1.97L8.64 1.97L8.64 1.97Q9.46 2.62 9.46 3.92L9.46 3.92L9.46 3.92Q9.46 4.67 9.19 5.27L9.19 5.27L9.19 5.27Q8.92 5.86 8.38 6.31L8.38 6.31L8.38 6.31Q7.30 7.21 5.54 7.21L5.54 7.21L5.27 7.21L5.27 7.21Q5.16 7.21 5.06 7.21L5.06 7.21L5.06 7.21Q4.92 7.18 4.86 7.18L4.86 7.18L4.21 7.09L4.58 5.91L5.29 5.97L5.29 5.97Q6.04 5.97 6.49 5.50L6.49 5.50L6.49 5.50Q6.92 5.02 6.92 4.18L6.92 4.18L6.92 4.18Q6.92 3.40 6.43 2.97L6.43 2.97L6.43 2.97Q5.93 2.54 5.06 2.54L5.06 2.54L4.44 2.57L4.44 2.57Q4.31 2.59 4.16 2.62L4.16 2.62L4.16 2.62Q4.02 2.66 3.87 2.70L3.87 2.70L3.87 5.91ZM14.14 6.49L13.45 6.49L13.45 7.67L13.49 9.03L13.49 9.03Q13.49 9.41 13.51 9.61L13.51 9.61L13.51 9.61Q13.54 9.81 13.58 9.91L13.58 9.91L14.41 10.08L14.41 10.68L12.24 10.64L10.08 10.68L10.08 10.08L10.90 9.91L10.90 9.91Q10.94 9.79 10.97 9.48L10.97 9.48L10.97 9.48Q11.00 9.16 11.00 9.03L11.00 9.03L11.03 7.67L11.03 4.35L11.00 3.00L11.00 3.00Q11.00 2.68 10.97 2.45L10.97 2.45L10.97 2.45Q10.94 2.22 10.90 2.11L10.90 2.11L10.08 1.95L10.08 1.35L12.24 1.38L15.72 1.31L15.72 1.31Q17.31 1.31 18.13 1.92L18.13 1.92L18.13 1.92Q18.96 2.53 18.96 3.75L18.96 3.75L18.96 3.75Q18.96 4.55 18.36 5.24L18.36 5.24L18.36 5.24Q17.77 5.92 16.56 6.16L16.56 6.16L19.77 9.90L20.21 10.08L20.22 10.68L20.22 10.68Q19.90 10.68 19.41 10.69L19.41 10.69L19.41 10.69Q18.92 10.71 18.91 10.71L18.91 10.71L17.65 10.82L17.35 10.87L17.35 10.87Q16.76 10.04 16.24 9.31L16.24 9.31L16.24 9.31Q15.85 8.76 15.49 8.28L15.49 8.28L14.14 6.49ZM13.46 2.63L13.46 5.28L14.31 5.35L14.31 5.35Q15.31 5.35 15.85 4.97L15.85 4.97L15.85 4.97Q16.39 4.60 16.39 3.80L16.39 3.80L16.39 3.80Q16.39 3.10 15.95 2.82L15.95 2.82L15.95 2.82Q15.50 2.54 14.57 2.54L14.57 2.54L14.57 2.54Q14.43 2.54 14.30 2.54L14.30 2.54L14.30 2.54Q14.17 2.54 13.99 2.56L13.99 2.56L13.99 2.56Q13.82 2.56 13.71 2.57L13.71 2.57L13.71 2.57Q13.59 2.59 13.46 2.63L13.46 2.63ZM28.42 10.64L22.45 10.64L20.29 10.68L20.29 10.08L21.11 9.91L21.11 9.91Q21.15 9.79 21.18 9.48L21.18 9.48L21.18 9.48Q21.21 9.16 21.21 9.03L21.21 9.03L21.24 7.67L21.24 4.35L21.21 3.00L21.21 3.00Q21.21 2.62 21.18 2.42L21.18 2.42L21.18 2.42Q21.16 2.23 21.11 2.11L21.11 2.11L20.29 1.95L20.29 1.35L22.45 1.38L28.01 1.38L28.19 2.35L28.19 2.35Q28.25 2.60 28.31 2.84L28.31 2.84L28.31 2.84Q28.37 3.07 28.45 3.29L28.45 3.29L27.85 3.54L27.43 2.90L27.43 2.90Q27.32 2.82 26.42 2.73L26.42 2.73L26.42 2.73Q25.51 2.65 24.33 2.65L24.33 2.65L23.72 2.65L23.66 5.04L25.41 5.00L25.41 5.00Q25.76 5.00 26.00 4.98L26.00 4.98L26.00 4.98Q26.24 4.96 26.30 4.93L26.30 4.93L26.53 4.28L27.13 4.28L27.09 5.58L27.13 6.87L26.53 6.87L26.30 6.22L25.46 6.17L23.66 6.14L23.66 6.82L23.72 9.41L24.59 9.41L24.59 9.41Q25.83 9.41 26.76 9.28L26.76 9.28L26.76 9.28Q27.69 9.14 27.86 9.07L27.86 9.07L28.30 8.30L28.94 8.54L28.42 10.64ZM37.64 10.64L31.67 10.64L29.51 10.68L29.51 10.08L30.34 9.91L30.34 9.91Q30.37 9.79 30.40 9.48L30.40 9.48L30.40 9.48Q30.43 9.16 30.43 9.03L30.43 9.03L30.47 7.67L30.47 4.35L30.43 3.00L30.43 3.00Q30.43 2.62 30.41 2.42L30.41 2.42L30.41 2.42Q30.38 2.23 30.34 2.11L30.34 2.11L29.51 1.95L29.51 1.35L31.67 1.38L37.23 1.38L37.41 2.35L37.41 2.35Q37.47 2.60 37.53 2.84L37.53 2.84L37.53 2.84Q37.59 3.07 37.67 3.29L37.67 3.29L37.07 3.54L36.65 2.90L36.65 2.90Q36.54 2.82 35.64 2.73L35.64 2.73L35.64 2.73Q34.73 2.65 33.55 2.65L33.55 2.65L32.94 2.65L32.89 5.04L34.64 5.00L34.64 5.00Q34.98 5.00 35.22 4.98L35.22 4.98L35.22 4.98Q35.46 4.96 35.52 4.93L35.52 4.93L35.76 4.28L36.35 4.28L36.32 5.58L36.35 6.87L35.76 6.87L35.52 6.22L34.68 6.17L32.89 6.14L32.89 6.82L32.94 9.41L33.81 9.41L33.81 9.41Q35.05 9.41 35.98 9.28L35.98 9.28L35.98 9.28Q36.91 9.14 37.08 9.07L37.08 9.07L37.52 8.30L38.16 8.54L37.64 10.64ZM44.17 3.99L44.17 7.67L44.17 7.67Q44.17 7.92 44.20 8.41L44.20 8.41L44.20 8.41Q44.23 8.90 44.23 9.03L44.23 9.03L44.23 9.03Q44.23 9.41 44.25 9.61L44.25 9.61L44.25 9.61Q44.28 9.81 44.32 9.91L44.32 9.91L45.30 10.08L45.30 10.68L42.97 10.64L40.63 10.68L40.63 10.08L41.62 9.91L41.62 9.91Q41.64 9.85 41.66 9.67L41.66 9.67L41.66 9.67Q41.68 9.48 41.73 9.03L41.73 9.03L41.76 7.67L41.76 3.99L41.68 2.66L41.68 2.66Q41.34 2.66 40.95 2.66L40.95 2.66L40.95 2.66Q40.55 2.67 40.07 2.75L40.07 2.75L40.07 2.75Q39.41 2.82 39.30 2.90L39.30 2.90L38.83 3.79L38.19 3.56L38.47 2.49L38.47 2.49Q38.54 2.23 38.62 1.90L38.62 1.90L38.62 1.90Q38.69 1.57 38.72 1.38L38.72 1.38L47.23 1.38L47.23 1.38Q47.27 1.63 47.33 1.93L47.33 1.93L47.33 1.93Q47.40 2.23 47.47 2.49L47.47 2.49L47.77 3.56L47.12 3.79L46.65 2.90L46.65 2.90Q46.54 2.84 45.87 2.75L45.87 2.75L45.87 2.75Q45.19 2.66 44.26 2.66L44.26 2.66L44.17 3.99ZM51.48 4.35L51.48 7.67L51.52 9.03L51.52 9.03Q51.52 9.41 51.54 9.61L51.54 9.61L51.54 9.61Q51.57 9.81 51.62 9.91L51.62 9.91L52.44 10.08L52.44 10.68L50.27 10.64L48.11 10.68L48.11 10.08L48.93 9.91L48.93 9.91Q48.97 9.79 49 9.48L49 9.48L49 9.48Q49.03 9.16 49.03 9.03L49.03 9.03L49.07 7.67L49.07 4.35L49.03 3.00L49.03 3.00Q49.03 2.62 49.01 2.42L49.01 2.42L49.01 2.42Q48.98 2.23 48.93 2.11L48.93 2.11L48.11 1.95L48.11 1.35L50.27 1.38L52.44 1.35L52.44 1.95L51.62 2.11L51.62 2.11Q51.58 2.20 51.55 2.44L51.55 2.44L51.55 2.44Q51.52 2.67 51.52 3.00L51.52 3.00L51.48 4.35Z"></path></g><!----><g data-v-423bf9ae="" id="3204d259-9e2c-4da8-b808-302be906bc06" transform="matrix(2.8125,0,0,2.8125,-21.194407999515533,0)" stroke="none" fill="black"><path d="M18.396 26.495L7.807 15.905 18.432 5.28l.707.707-9.918 9.918 9.882 9.883z"></path><path d="M23.194 1v4.194H19V1h4.194m1-1H18v6.194h6.194V0zM23.194 26.806V31H19v-4.194h4.194m1-1H18V32h6.194v-6.194z"></path></g><!----><g data-v-423bf9ae="" id="4b423f24-d49b-41cc-929d-9a03ad053876" fill="black" transform="matrix(1.1306104847462926,0,0,1.1306104847462926,65.29700929687957,55.71498728521923)"><path d="M1.89 3.92L0.70 3.92L0.70 4.19C0.70 4.34 0.80 4.42 0.98 4.44L1.12 4.44C1.19 4.44 1.29 4.45 1.43 4.45C1.57 4.45 1.72 4.47 1.89 4.47L1.89 13.26C1.72 13.26 1.57 13.27 1.43 13.27C1.29 13.27 1.19 13.29 1.12 13.29L0.98 13.29C0.80 13.30 0.71 13.38 0.71 13.54L0.71 13.82L1.89 13.82L7.83 13.82L7.83 13.22L7.83 11.76L7.48 11.76C7.28 11.76 7.20 11.89 7.18 12.11C7.18 12.14 7.17 12.19 7.17 12.29C7.17 12.39 7.17 12.53 7.15 12.74C7.14 12.95 7.13 13.09 7.13 13.22L2.60 13.22L2.60 9.09L6.55 9.09L6.55 8.51L2.60 8.51L2.60 4.51L7.13 4.51C7.15 5.12 7.18 5.50 7.18 5.63C7.20 5.85 7.28 5.96 7.48 5.96L7.83 5.96L7.83 4.51L7.83 3.92ZM25.31 3.92L24.75 3.92L24.72 3.92L23.25 3.92L23.25 4.19C23.25 4.34 23.34 4.42 23.52 4.44L23.65 4.44C23.70 4.44 23.79 4.45 23.91 4.45C24.04 4.45 24.18 4.47 24.33 4.47L21.13 12.32C21.04 12.53 20.97 12.75 20.92 13.01C20.86 12.77 20.79 12.53 20.71 12.32L17.47 4.47C17.63 4.47 17.78 4.45 17.91 4.45C18.03 4.45 18.12 4.44 18.17 4.44L18.28 4.44C18.47 4.42 18.56 4.34 18.56 4.19L18.56 3.92L17.07 3.92L16.51 3.92L15.90 3.92L15.90 4.19C15.90 4.34 16.00 4.42 16.18 4.44L16.28 4.44C16.32 4.44 16.39 4.45 16.46 4.45C16.53 4.45 16.63 4.47 16.73 4.47L20.59 13.82L21.22 13.82L25.09 4.47C25.19 4.47 25.28 4.45 25.35 4.45C25.42 4.45 25.49 4.44 25.54 4.44L25.62 4.44C25.80 4.42 25.90 4.34 25.90 4.19L25.90 3.92ZM35.14 3.92L33.95 3.92L33.95 4.19C33.95 4.34 34.05 4.42 34.23 4.44L34.37 4.44C34.44 4.44 34.54 4.45 34.68 4.45C34.82 4.45 34.97 4.47 35.14 4.47L35.14 13.26C34.97 13.26 34.82 13.27 34.68 13.27C34.54 13.27 34.44 13.29 34.37 13.29L34.23 13.29C34.05 13.30 33.96 13.38 33.96 13.54L33.96 13.82L35.14 13.82L41.08 13.82L41.08 13.22L41.08 11.76L40.73 11.76C40.53 11.76 40.45 11.89 40.43 12.11C40.43 12.14 40.42 12.19 40.42 12.29C40.42 12.39 40.42 12.53 40.40 12.74C40.39 12.95 40.38 13.09 40.38 13.22L35.85 13.22L35.85 9.09L39.80 9.09L39.80 8.51L35.85 8.51L35.85 4.51L40.38 4.51C40.40 5.12 40.43 5.50 40.43 5.63C40.45 5.85 40.53 5.96 40.73 5.96L41.08 5.96L41.08 4.51L41.08 3.92ZM58.49 3.92L57.86 3.92L56.64 3.92L56.64 4.19C56.64 4.34 56.74 4.42 56.92 4.44L57.06 4.44C57.13 4.44 57.25 4.45 57.39 4.45C57.53 4.45 57.69 4.47 57.86 4.47L57.86 12.22C57.86 12.35 57.86 12.49 57.88 12.63L51.46 4.05C51.42 3.99 51.39 3.95 51.35 3.93C51.31 3.92 51.27 3.91 51.20 3.91L50.85 3.91L49.66 3.91L49.66 4.19C49.66 4.34 49.76 4.42 49.94 4.44L50.08 4.44C50.15 4.44 50.25 4.45 50.39 4.45C50.53 4.45 50.68 4.47 50.85 4.47L50.85 13.26C50.68 13.26 50.53 13.27 50.39 13.27C50.25 13.27 50.15 13.29 50.08 13.29L49.94 13.29C49.76 13.30 49.66 13.38 49.66 13.54L49.66 13.82L50.85 13.82L51.46 13.82L52.68 13.82L52.68 13.54C52.68 13.38 52.58 13.30 52.40 13.29L52.26 13.29C52.19 13.29 52.07 13.27 51.93 13.27C51.79 13.27 51.63 13.26 51.46 13.26L51.46 5.49C51.46 5.36 51.46 5.22 51.45 5.08L57.89 13.68C57.96 13.78 58.03 13.82 58.14 13.82L58.49 13.82L58.49 4.47C58.66 4.47 58.80 4.45 58.94 4.45C59.08 4.45 59.19 4.44 59.26 4.44L59.39 4.44C59.57 4.42 59.67 4.34 59.67 4.19L59.67 3.92ZM75.22 3.92L75.03 3.92L67.73 3.92L67.52 3.92L67.42 3.92L67.42 5.96L67.77 5.96C67.97 5.96 68.05 5.85 68.07 5.63C68.07 5.53 68.10 5.17 68.12 4.52L71.02 4.52L71.02 13.26C70.85 13.26 70.71 13.27 70.57 13.27C70.43 13.27 70.32 13.29 70.25 13.29L70.13 13.29C69.94 13.30 69.85 13.38 69.85 13.54L69.85 13.82L71.02 13.82L71.74 13.82L72.93 13.82L72.93 13.54C72.93 13.38 72.83 13.30 72.65 13.29L72.51 13.29C72.44 13.29 72.34 13.27 72.20 13.27C72.06 13.27 71.90 13.26 71.74 13.26L71.74 4.52L74.62 4.52C74.66 5.24 74.68 5.60 74.68 5.63C74.69 5.85 74.79 5.96 74.98 5.96L75.32 5.96L75.32 3.92ZM103.07 8.86C103.07 8.11 102.94 7.41 102.72 6.79C102.49 6.17 102.17 5.64 101.75 5.19C101.33 4.75 100.84 4.40 100.27 4.16C99.69 3.92 99.04 3.79 98.34 3.79C97.64 3.79 97.01 3.92 96.43 4.16C95.86 4.40 95.35 4.75 94.93 5.19C94.51 5.64 94.19 6.17 93.97 6.79C93.74 7.41 93.62 8.11 93.62 8.86C93.62 9.63 93.74 10.33 93.97 10.95C94.19 11.56 94.51 12.10 94.93 12.54C95.35 12.99 95.86 13.33 96.43 13.57C97.01 13.80 97.64 13.93 98.34 13.93C99.04 13.93 99.69 13.80 100.27 13.57C100.84 13.33 101.33 12.99 101.75 12.54C102.17 12.10 102.49 11.56 102.72 10.95C102.94 10.33 103.07 9.63 103.07 8.86ZM102.31 8.86C102.31 9.56 102.23 10.18 102.03 10.72C101.84 11.27 101.57 11.75 101.22 12.12C100.87 12.50 100.45 12.81 99.96 13.01C99.47 13.20 98.94 13.30 98.34 13.30C97.75 13.30 97.22 13.20 96.73 13.01C96.24 12.81 95.82 12.50 95.47 12.12C95.12 11.75 94.84 11.27 94.64 10.72C94.44 10.18 94.36 9.56 94.36 8.86C94.36 8.18 94.44 7.55 94.64 7.00C94.84 6.45 95.12 5.98 95.47 5.60C95.82 5.22 96.24 4.91 96.73 4.72C97.22 4.52 97.75 4.41 98.34 4.41C98.94 4.41 99.47 4.52 99.96 4.72C100.45 4.91 100.87 5.22 101.22 5.60C101.57 5.98 101.84 6.45 102.03 7.00C102.23 7.55 102.31 8.18 102.31 8.86ZM119.34 13.29L119.24 13.29L119.06 13.29C118.97 13.29 118.89 13.27 118.80 13.27L115.84 9.53C115.75 9.42 115.64 9.32 115.53 9.25C115.96 9.21 116.35 9.11 116.70 8.96C117.05 8.81 117.33 8.61 117.59 8.37C117.82 8.13 118.02 7.85 118.15 7.55C118.27 7.24 118.34 6.89 118.34 6.51C118.34 5.66 118.06 5.03 117.50 4.58C116.94 4.14 116.09 3.92 114.94 3.92L112.53 3.92L111.36 3.92L111.36 4.19C111.36 4.34 111.44 4.42 111.62 4.44L111.76 4.44C111.83 4.44 111.93 4.45 112.07 4.45C112.21 4.45 112.36 4.47 112.53 4.47L112.53 13.26C112.36 13.26 112.21 13.27 112.07 13.27C111.93 13.27 111.83 13.29 111.76 13.29L111.62 13.29C111.44 13.30 111.34 13.38 111.34 13.54L111.34 13.82L112.53 13.82L113.25 13.82L114.42 13.82L114.42 13.54C114.42 13.38 114.32 13.30 114.14 13.29L114.00 13.29C113.93 13.29 113.83 13.27 113.69 13.27C113.55 13.27 113.41 13.26 113.25 13.26L113.25 9.34L114.42 9.34C114.62 9.34 114.76 9.35 114.84 9.39C114.93 9.44 115.01 9.52 115.09 9.62L118.27 13.64C118.33 13.71 118.37 13.75 118.43 13.78C118.48 13.80 118.55 13.82 118.62 13.82L118.69 13.82L119.24 13.82L119.60 13.82L119.60 13.54C119.60 13.38 119.52 13.30 119.34 13.29ZM114.84 8.81L113.25 8.81L113.25 4.48L114.94 4.48C115.82 4.48 116.49 4.66 116.96 5.00C117.42 5.33 117.64 5.87 117.64 6.57C117.64 6.92 117.59 7.21 117.46 7.49C117.33 7.77 117.14 7.99 116.90 8.19C116.66 8.39 116.37 8.55 116.02 8.65C115.67 8.75 115.28 8.81 114.84 8.81ZM133.14 9.32L133.14 9.72C133.14 9.76 133.17 9.80 133.20 9.83C133.22 9.86 133.27 9.87 133.32 9.87L135.23 9.87L135.23 12.54C135.00 12.67 134.78 12.78 134.57 12.88C134.36 12.98 134.12 13.08 133.88 13.15C133.64 13.22 133.38 13.27 133.10 13.30C132.82 13.33 132.51 13.34 132.17 13.34C131.56 13.34 131.00 13.24 130.49 13.03C129.99 12.82 129.56 12.53 129.19 12.15C128.83 11.77 128.55 11.30 128.35 10.74C128.16 10.18 128.04 9.56 128.04 8.86C128.04 8.18 128.16 7.56 128.35 7.01C128.55 6.47 128.83 5.99 129.19 5.61C129.56 5.24 130.00 4.94 130.52 4.73C131.04 4.52 131.61 4.42 132.26 4.42C133.43 4.42 134.37 4.58 135.06 4.90C135.10 5.81 135.13 6.31 135.13 6.41C135.14 6.64 135.24 6.75 135.44 6.75L135.77 6.75L135.77 4.51C135.34 4.31 134.78 4.14 134.08 4.00C133.38 3.86 132.79 3.81 132.29 3.81C131.53 3.81 130.84 3.92 130.23 4.16C129.61 4.40 129.09 4.75 128.66 5.18C128.23 5.61 127.90 6.15 127.67 6.78C127.43 7.39 127.32 8.09 127.32 8.86C127.32 9.63 127.43 10.32 127.67 10.95C127.90 11.58 128.23 12.10 128.65 12.54C129.07 12.99 129.58 13.33 130.17 13.57C130.76 13.80 131.40 13.93 132.12 13.93C132.54 13.93 132.92 13.90 133.27 13.86C133.62 13.80 133.94 13.73 134.25 13.65C134.55 13.55 134.83 13.44 135.10 13.30C135.37 13.16 135.62 13.01 135.87 12.84L135.87 9.32ZM153.57 13.22L153.10 13.17L149.32 3.91L148.61 3.91L144.82 13.17L144.37 13.22C144.19 13.23 144.10 13.33 144.10 13.50L144.10 13.82L144.55 13.82L144.84 13.82L145.10 13.82L145.19 13.82L146.51 13.82L146.51 13.50C146.51 13.31 146.40 13.23 146.19 13.22C146.17 13.22 146.15 13.20 146.10 13.20C146.06 13.20 146.01 13.19 145.91 13.19C145.81 13.19 145.68 13.19 145.54 13.17L146.52 10.75L146.59 10.57L151.33 10.57L151.40 10.75L152.38 13.17C152.24 13.19 152.12 13.19 152.03 13.19C151.93 13.19 151.86 13.20 151.82 13.20C151.77 13.20 151.75 13.22 151.73 13.22C151.52 13.23 151.41 13.31 151.41 13.50L151.41 13.82L152.73 13.82L152.82 13.82L153.09 13.82L153.37 13.82L153.83 13.82L153.83 13.50C153.83 13.33 153.75 13.23 153.57 13.22ZM148.76 5.22C148.79 5.14 148.83 5.04 148.86 4.94C148.89 4.84 148.93 4.75 148.96 4.63C148.99 4.75 149.03 4.84 149.06 4.94C149.09 5.04 149.13 5.12 149.16 5.21L151.12 10.04L146.82 10.04ZM170.90 3.92L170.27 3.92L169.05 3.92L169.05 4.19C169.05 4.34 169.15 4.42 169.33 4.44L169.47 4.44C169.54 4.44 169.65 4.45 169.79 4.45C169.93 4.45 170.10 4.47 170.27 4.47L170.27 12.22C170.27 12.35 170.27 12.49 170.28 12.63L163.87 4.05C163.83 3.99 163.80 3.95 163.76 3.93C163.72 3.92 163.67 3.91 163.60 3.91L163.25 3.91L162.06 3.91L162.06 4.19C162.06 4.34 162.16 4.42 162.34 4.44L162.48 4.44C162.55 4.44 162.65 4.45 162.79 4.45C162.93 4.45 163.09 4.47 163.25 4.47L163.25 13.26C163.09 13.26 162.93 13.27 162.79 13.27C162.65 13.27 162.55 13.29 162.48 13.29L162.34 13.29C162.16 13.30 162.06 13.38 162.06 13.54L162.06 13.82L163.25 13.82L163.87 13.82L165.09 13.82L165.09 13.54C165.09 13.38 164.99 13.30 164.81 13.29L164.67 13.29C164.60 13.29 164.47 13.27 164.33 13.27C164.19 13.27 164.04 13.26 163.87 13.26L163.87 5.49C163.87 5.36 163.87 5.22 163.86 5.08L170.30 13.68C170.37 13.78 170.44 13.82 170.55 13.82L170.90 13.82L170.90 4.47C171.07 4.47 171.21 4.45 171.35 4.45C171.49 4.45 171.60 4.44 171.67 4.44L171.79 4.44C171.98 4.42 172.07 4.34 172.07 4.19L172.07 3.92ZM182.92 4.44C183.11 4.42 183.19 4.34 183.19 4.19L183.19 3.91L182.01 3.91L181.30 3.91L180.11 3.91L180.11 4.19C180.11 4.34 180.21 4.42 180.39 4.44L180.53 4.44C180.60 4.44 180.70 4.45 180.84 4.45C180.98 4.45 181.13 4.47 181.30 4.47L181.30 13.26C181.13 13.26 180.98 13.27 180.84 13.27C180.70 13.27 180.60 13.29 180.53 13.29L180.39 13.29C180.21 13.30 180.11 13.38 180.11 13.54L180.11 13.82L181.30 13.82L182.01 13.82L183.19 13.82L183.19 13.54C183.19 13.38 183.11 13.30 182.92 13.29L182.78 13.29C182.71 13.29 182.62 13.27 182.48 13.27C182.34 13.27 182.18 13.26 182.01 13.26L182.01 4.47C182.18 4.47 182.34 4.45 182.48 4.45C182.62 4.45 182.71 4.44 182.78 4.44ZM198.88 4.16L198.88 3.92L191.73 3.92L191.73 3.92L191.73 6.03L192.08 6.03C192.28 6.03 192.36 5.92 192.37 5.70C192.37 5.68 192.39 5.61 192.40 5.52C192.42 5.42 192.42 5.26 192.43 5.08C192.44 4.90 192.46 4.72 192.47 4.51L197.93 4.51L191.63 13.31C191.58 13.40 191.56 13.47 191.56 13.55L191.56 13.82L198.83 13.82L198.83 13.82L198.83 11.69L198.49 11.69C198.30 11.69 198.21 11.82 198.20 12.04C198.20 12.05 198.18 12.12 198.17 12.22C198.16 12.32 198.16 12.46 198.14 12.64C198.13 12.82 198.11 13.02 198.10 13.23L192.50 13.23L198.79 4.45C198.86 4.35 198.88 4.26 198.88 4.16ZM208.59 3.92L207.40 3.92L207.40 4.19C207.40 4.34 207.49 4.42 207.68 4.44L207.82 4.44C207.89 4.44 207.98 4.45 208.12 4.45C208.26 4.45 208.42 4.47 208.59 4.47L208.59 13.26C208.42 13.26 208.26 13.27 208.12 13.27C207.98 13.27 207.89 13.29 207.82 13.29L207.68 13.29C207.49 13.30 207.41 13.38 207.41 13.54L207.41 13.82L208.59 13.82L214.52 13.82L214.52 13.22L214.52 11.76L214.17 11.76C213.98 11.76 213.89 11.89 213.88 12.11C213.88 12.14 213.86 12.19 213.86 12.29C213.86 12.39 213.86 12.53 213.85 12.74C213.84 12.95 213.82 13.09 213.82 13.22L209.30 13.22L209.30 9.09L213.25 9.09L213.25 8.51L209.30 8.51L209.30 4.51L213.82 4.51C213.85 5.12 213.88 5.50 213.88 5.63C213.89 5.85 213.98 5.96 214.17 5.96L214.52 5.96L214.52 4.51L214.52 3.92ZM231.10 13.29L231.00 13.29L230.82 13.29C230.73 13.29 230.65 13.27 230.57 13.27L227.60 9.53C227.51 9.42 227.40 9.32 227.29 9.25C227.72 9.21 228.12 9.11 228.47 8.96C228.82 8.81 229.10 8.61 229.35 8.37C229.59 8.13 229.78 7.85 229.91 7.55C230.03 7.24 230.10 6.89 230.10 6.51C230.10 5.66 229.82 5.03 229.26 4.58C228.70 4.14 227.85 3.92 226.70 3.92L224.29 3.92L223.12 3.92L223.12 4.19C223.12 4.34 223.20 4.42 223.38 4.44L223.52 4.44C223.59 4.44 223.69 4.45 223.83 4.45C223.97 4.45 224.13 4.47 224.29 4.47L224.29 13.26C224.13 13.26 223.97 13.27 223.83 13.27C223.69 13.27 223.59 13.29 223.52 13.29L223.38 13.29C223.20 13.30 223.10 13.38 223.10 13.54L223.10 13.82L224.29 13.82L225.01 13.82L226.18 13.82L226.18 13.54C226.18 13.38 226.09 13.30 225.90 13.29L225.76 13.29C225.69 13.29 225.60 13.27 225.46 13.27C225.32 13.27 225.18 13.26 225.01 13.26L225.01 9.34L226.18 9.34C226.38 9.34 226.52 9.35 226.60 9.39C226.69 9.44 226.77 9.52 226.86 9.62L230.03 13.64C230.09 13.71 230.13 13.75 230.19 13.78C230.24 13.80 230.31 13.82 230.38 13.82L230.45 13.82L231.00 13.82L231.36 13.82L231.36 13.54C231.36 13.38 231.28 13.30 231.10 13.29ZM226.60 8.81L225.01 8.81L225.01 4.48L226.70 4.48C227.58 4.48 228.26 4.66 228.72 5.00C229.18 5.33 229.40 5.87 229.40 6.57C229.40 6.92 229.35 7.21 229.22 7.49C229.10 7.77 228.90 7.99 228.66 8.19C228.42 8.39 228.13 8.55 227.78 8.65C227.43 8.75 227.04 8.81 226.60 8.81Z"></path></g></svg>